<?xml version="1.0" encoding="utf-8"?>
<!-- Generator: Adobe Illustrator 15.0.0, SVG Export Plug-In . SVG Version: 6.00 Build 0)  -->
<!DOCTYPE svg PUBLIC "-//W3C//DTD SVG 1.1//EN" "http://www.w3.org/Graphics/SVG/1.1/DTD/svg11.dtd">
<svg version="1.1" id="Layer_1" xmlns="http://www.w3.org/2000/svg" xmlns:xlink="http://www.w3.org/1999/xlink" x="0px" y="0px"
	 width="1000px" height="1000px" viewBox="0 0 1000 1000" enable-background="new 0 0 1000 1000" xml:space="preserve">
<path d="M264.304,446.936c-0.016-20.231-0.024-40.455,0.008-60.68c0.008-7.688,4.144-12.056,11.76-12.072
	c36.528-0.064,73.056-0.024,109.584-0.008c0.432,0,0.863,0.096,2.072,0.24c-0.856,1.696-1.433,2.968-2.129,4.176
	c-14.888,25.816-29.815,51.608-44.624,77.473c-1.472,2.575-3.063,3.575-6.096,3.552c-19.352-0.152-38.712-0.064-58.064-0.08
	C268.288,459.52,264.304,455.496,264.304,446.936z M345.16,579.632c-12.16,8.44-24.448,16.704-36.8,24.864
	c-1.368,0.904-3.928,1.464-5.128,0.784c-1.392-0.8-1.904-3.152-2.32-3.944c1.832-15.488,3.408-29.775,5.28-44.023
	c0.695-5.297,4.928-7.496,9.607-4.961c9.816,5.337,19.513,10.889,29.104,16.616C349.512,571.736,349.632,576.528,345.16,579.632z
	 M357.552,557.656c-0.872-0.312-2.896-0.744-4.624-1.704c-8.888-4.96-17.728-10-26.52-15.128c-6.448-3.76-7.96-9.416-4.208-15.928
	c42.696-74.072,85.424-148.121,128.16-222.16c3.88-6.72,9.487-8.24,16.224-4.464c8.624,4.832,17.216,9.72,25.776,14.672
	c6.903,3.992,8.399,9.584,4.368,16.576c-42.616,73.944-85.265,147.872-127.889,221.816
	C366.568,555.288,363.424,557.704,357.552,557.656z M452.304,459.272c0.856-1.601,1.488-2.864,2.192-4.089
	c14.808-25.688,29.688-51.327,44.359-77.096c1.776-3.12,3.744-4.152,7.185-4.024c6.824,0.248,13.68-0.048,20.504,0.184
	c1.376,0.048,3.416,1.12,3.96,2.28c12.872,27.168,25.592,54.417,38.32,81.656c0.104,0.232,0.016,0.553,0.016,1.089
	C530.136,459.272,491.448,459.272,452.304,459.272z M607.584,479.656c-5.968-10.809-12.368-21.408-17.744-32.504
	c-33.76-69.704-64.656-140.704-94.191-212.288c-4.185-10.144-6.656-21.008-9.809-31.576c-0.576-1.92-0.6-4.008-0.704-4.792
	c0-2.12-0.248-3.096,0.048-3.848c0.761-1.92,1.345-4.48,2.832-5.352c1.057-0.616,4.009,0.6,5.2,1.864
	c3.96,4.232,8.048,8.512,11.12,13.376c11.088,17.576,21.656,35.48,32.648,53.12c40.312,64.696,76.136,131.896,111.487,199.368
	c4.232,8.079,3.656,14.231-3.128,20.399c-7.224,6.561-15.384,11.592-25.84,10.128C614.352,486.84,610.168,484.336,607.584,479.656z
	 M649.096,543.96c-5.855-8.832-11.552-17.784-17.056-26.832c-3.576-5.888-1.768-11.784,4.328-15.088
	c5.104-2.76,10.271-5.424,15.496-7.944c6.16-2.976,12.504-1.16,15.76,4.769c4.68,8.52,9.072,17.2,13.479,25.864
	c0.832,1.64,1.16,3.544,1.521,4.663c-0.288,5.232-1.96,8.969-5.832,11.408c-3.808,2.4-7.656,4.736-11.6,6.904
	C659.208,550.992,652.856,549.632,649.096,543.96z M695.152,601.936c-5.544-2.855-11.36-5.224-16.712-8.384
	c-6.824-4.016-11.688-9.976-14.448-17.472c-3.008-8.168-0.336-17.064,7.151-21.272c4.337-2.439,9.328-4.216,14.24-5.031
	c8.048-1.336,14.601,2.407,17.944,9.544c3.096,6.6,5.528,13.815,6.568,21c1.455,10.104,1.352,20.439,1.903,30.552
	C705.512,607.48,700.376,604.624,695.152,601.936z M735.928,447.08c-0.008,8.296-4.048,12.432-12.224,12.448
	c-18.185,0.031-36.376,0.008-53.448,0.008c-15.184-28.776-29.88-56.624-44.952-85.176c1.944-0.088,3.296-0.208,4.656-0.208
	c31-0.008,62.008-0.024,93.008,0c8.992,0.008,12.96,4.048,12.968,13.104C735.936,407.192,735.944,427.136,735.928,447.08z"/>
</svg>
