<?xml version="1.0" encoding="utf-8"?>
<!-- Generator: Adobe Illustrator 15.0.0, SVG Export Plug-In . SVG Version: 6.00 Build 0)  -->
<!DOCTYPE svg PUBLIC "-//W3C//DTD SVG 1.1//EN" "http://www.w3.org/Graphics/SVG/1.1/DTD/svg11.dtd">
<svg version="1.1" id="Layer_1" xmlns="http://www.w3.org/2000/svg" xmlns:xlink="http://www.w3.org/1999/xlink" x="0px" y="0px"
	 width="1000px" height="1000px" viewBox="0 0 1000 1000" enable-background="new 0 0 1000 1000" xml:space="preserve">
<g transform="matrix( 1, 0, 0, 1, 0,0) ">
	<g>
		<g id="a">
			<path d="M850.5,567.6c0-1.866,0-4.133,0-6.8V78.4c0-30.933-21.833-43.2-65.5-36.8l-405,63.2c-30.333,6.667-47,25.467-50,56.4
				v141.2V548c0,32.533-22,48.8-66,48.8c-45.667,0-77.833,3.2-96.5,9.601c-33,13.333-52.167,33.6-57.5,60.8c0,32,15,56.8,45,74.399
				c51,21.867,104,24.134,159,6.801c50-22.667,74.167-57.601,72.5-104.801V282.4c4-20.8,17.833-33.6,41.5-38.4l313.5-49.2
				c17.667-2.933,30.5-2.8,38.5,0.4c8.333,3.2,12.667,10.267,13,21.2L792.5,492c-2.667,21.066-17.167,32.133-43.5,33.2l-58.5,2.399
				c-29,0.534-53,5.067-72,13.601c-36.667,20.267-49.667,51.6-39,94C596.167,672,642,690.4,717,690.4
				C805.667,682.934,850.167,642,850.5,567.6z"/>
		</g>
	</g>
</g>
</svg>
