<?xml version="1.0" encoding="utf-8"?>
<!-- Generator: Adobe Illustrator 15.0.0, SVG Export Plug-In . SVG Version: 6.00 Build 0)  -->
<!DOCTYPE svg PUBLIC "-//W3C//DTD SVG 1.1//EN" "http://www.w3.org/Graphics/SVG/1.1/DTD/svg11.dtd">
<svg version="1.1" id="Layer_1" xmlns="http://www.w3.org/2000/svg" xmlns:xlink="http://www.w3.org/1999/xlink" x="0px" y="0px"
	 width="1000px" height="1000px" viewBox="0 0 1000 1000" enable-background="new 0 0 1000 1000" xml:space="preserve">
<g>
	<path d="M530.4,722.4H496.8c-12,0-21.6-9.601-23.2-22.4c-1.6-27.2-8.8-68.8-14.399-108.8c-6.4-40.8-12.8-82.4-15.2-110.4
		c-0.8-10.399,3.2-20,10.4-28c8-8,18.399-12.8,29.6-12.8h59.2c11.2,0,21.6,4.8,29.6,12.8c7.2,8,11.2,17.601,10.4,28
		c-2.4,27.2-8.8,68.8-14.4,109.601C562.4,631.2,556,672.8,553.6,700.8l0,0C552,712.8,542.4,722.4,530.4,722.4z M484,456
		c-6.4,0-12.8,2.4-17.6,8c-4,4.8-6.4,10.4-6.4,16c1.6,27.2,8.8,68.8,14.4,108.8c6.399,40.8,12.8,82.4,15.199,110.4
		c0.801,4.8,3.2,8,7.2,8H530.4c4.8,0,7.199-4.8,7.199-8c2.4-28,8.801-70.4,15.2-111.2c6.4-40,12.8-80.8,14.4-108
		c0-5.6-1.601-11.2-6.4-16s-11.2-8-17.6-8H484z M545.6,699.2L545.6,699.2L545.6,699.2z M653.6,556.8c-2.399,0-4.8-1.6-6.399-3.2
		c-2.4-4-1.601-8.8,2.399-11.199C717.6,497.6,758.4,422.4,758.4,340c0-134.4-108.801-243.2-243.2-243.2
		c-134.4,0-244,108.8-244,243.2c0,81.6,40.8,157.6,108.8,202.4c4,2.399,4.8,7.199,2.4,11.199c-2.4,4-7.2,4.801-11.2,2.4
		C299.2,508,256,428,256,340.8c0-143.2,116-259.2,259.2-259.2s259.2,116,259.2,259.2c0,87.2-43.2,168-115.2,215.2
		C656.8,556,655.2,556.8,653.6,556.8z M639.2,440.8c-1.601,0-3.2-0.8-4.8-1.6c-3.2-2.4-4.801-7.2-1.601-11.2
		c18.4-26.4,28.8-57.6,28.8-88c0-81.6-66.399-148-148-148c-81.6,0-148,66.4-148,148c0,32,9.601,62.4,28.801,88
		c2.399,3.2,1.6,8.8-1.601,11.2c-3.2,2.399-8.8,1.6-11.2-1.601c-20.8-28.8-32-62.399-32-97.6c0-90.4,73.601-164,164-164
		c90.4,0,164,73.6,164,164c0,34.4-11.199,68.8-32,97.6C644,440,641.6,440.8,639.2,440.8z M513.6,401.6c-32.8,0-60-27.2-60-60
		c0-32.8,27.2-60,60-60c32.801,0,60,27.2,60,60C573.6,374.4,546.4,401.6,513.6,401.6z M513.6,297.6c-24,0-44,20-44,44s20,44,44,44
		s44-20,44-44S537.6,297.6,513.6,297.6z"/>
</g>
</svg>
