<?xml version="1.0" encoding="utf-8"?>
<!-- Generator: Adobe Illustrator 15.0.0, SVG Export Plug-In . SVG Version: 6.00 Build 0)  -->
<!DOCTYPE svg PUBLIC "-//W3C//DTD SVG 1.1//EN" "http://www.w3.org/Graphics/SVG/1.1/DTD/svg11.dtd">
<svg version="1.1" id="Layer_1" xmlns="http://www.w3.org/2000/svg" xmlns:xlink="http://www.w3.org/1999/xlink" x="0px" y="0px"
	 width="1000px" height="1000px" viewBox="0 0 1000 1000" enable-background="new 0 0 1000 1000" xml:space="preserve">
<g>
	<path fill="none" d="M812,193.6H188c-4,0-8,3.2-8,8v368c0,4.801,3.2,8,8,8h624c4,0,8-3.199,8-8v-368
		C820,197.6,816.8,193.6,812,193.6z"/>
	<path d="M820,186.4H180c-4,0-8,3.2-8,8v384c0,4.8,3.2,8,8,8h25.6l5.6,4.8H473.6V604H331.2l8,9.6h297.6l8-9.6H501.6v-12.8H780
		l5.6-4.8H820c4,0,8-3.2,8-8v-384C828,189.6,824.8,186.4,820,186.4z M820,569.6c0,4.801-3.2,8-8,8H188c-4,0-8-3.199-8-8v-368
		c0-4.8,3.2-8,8-8h624c4,0,8,3.2,8,8V569.6z"/>
</g>
</svg>
